<mxfile host="app.diagrams.net" modified="2023-12-13T02:56:59.455Z" agent="5.0 (Macintosh; Intel Mac OS X 10_15_7) AppleWebKit/537.36 (KHTML, like Gecko) Chrome/120.0.0.0 Safari/537.36 Edg/120.0.0.0" etag="xHLFMngQ6tf9EEefOKkS" version="20.8.18" type="github">
  <diagram name="第 1 页" id="eH-HPuCTw2R836-h_DPw">
    <mxGraphModel dx="1426" dy="800" grid="1" gridSize="10" guides="1" tooltips="1" connect="1" arrows="1" fold="1" page="1" pageScale="1" pageWidth="850" pageHeight="1100" background="none" math="0" shadow="1">
      <root>
        <mxCell id="0" />
        <mxCell id="1" parent="0" />
        <mxCell id="hTUGn8ci9YgOcd0fsEHF-1" value="Flow" style="rounded=0;whiteSpace=wrap;html=1;labelBackgroundColor=none;fillColor=#FAE5C7;strokeColor=#0F8B8D;fontColor=#143642;sketch=1;curveFitting=1;jiggle=2;" vertex="1" parent="1">
          <mxGeometry x="90" y="40" width="320" height="40" as="geometry" />
        </mxCell>
        <mxCell id="hTUGn8ci9YgOcd0fsEHF-2" value="Step" style="rounded=0;whiteSpace=wrap;html=1;labelBackgroundColor=none;fillColor=#FAE5C7;strokeColor=#0F8B8D;fontColor=#143642;sketch=1;curveFitting=1;jiggle=2;" vertex="1" parent="1">
          <mxGeometry x="90" y="90" width="100" height="40" as="geometry" />
        </mxCell>
        <mxCell id="hTUGn8ci9YgOcd0fsEHF-3" value="Step" style="rounded=0;whiteSpace=wrap;html=1;labelBackgroundColor=none;fillColor=#FAE5C7;strokeColor=#0F8B8D;fontColor=#143642;sketch=1;curveFitting=1;jiggle=2;" vertex="1" parent="1">
          <mxGeometry x="210" y="90" width="100" height="40" as="geometry" />
        </mxCell>
        <mxCell id="hTUGn8ci9YgOcd0fsEHF-4" value="..." style="rounded=0;whiteSpace=wrap;html=1;labelBackgroundColor=none;fillColor=#FAE5C7;strokeColor=#0F8B8D;fontColor=#143642;sketch=1;curveFitting=1;jiggle=2;" vertex="1" parent="1">
          <mxGeometry x="330" y="90" width="80" height="40" as="geometry" />
        </mxCell>
        <mxCell id="hTUGn8ci9YgOcd0fsEHF-5" value="RabbitMQ" style="rounded=0;whiteSpace=wrap;html=1;labelBackgroundColor=none;fillColor=#FAE5C7;strokeColor=#0F8B8D;fontColor=#143642;sketch=1;curveFitting=1;jiggle=2;" vertex="1" parent="1">
          <mxGeometry x="540" y="400" width="120" height="60" as="geometry" />
        </mxCell>
        <mxCell id="hTUGn8ci9YgOcd0fsEHF-6" value="Celery Worker" style="rounded=0;whiteSpace=wrap;html=1;verticalAlign=top;align=left;labelBackgroundColor=none;fillColor=#FAE5C7;strokeColor=#0F8B8D;fontColor=#143642;sketch=1;curveFitting=1;jiggle=2;" vertex="1" parent="1">
          <mxGeometry x="740" y="225" width="350" height="410" as="geometry" />
        </mxCell>
        <mxCell id="hTUGn8ci9YgOcd0fsEHF-7" value="Http Server" style="rounded=0;whiteSpace=wrap;html=1;align=left;verticalAlign=top;labelBackgroundColor=none;fillColor=#FAE5C7;strokeColor=#0F8B8D;fontColor=#143642;sketch=1;curveFitting=1;jiggle=2;" vertex="1" parent="1">
          <mxGeometry x="90" y="220" width="400" height="410" as="geometry" />
        </mxCell>
        <mxCell id="hTUGn8ci9YgOcd0fsEHF-18" style="edgeStyle=orthogonalEdgeStyle;rounded=0;hachureGap=4;orthogonalLoop=1;jettySize=auto;html=1;exitX=0.5;exitY=1;exitDx=0;exitDy=0;entryX=0.5;entryY=0;entryDx=0;entryDy=0;fontFamily=Architects Daughter;fontSource=https%3A%2F%2Ffonts.googleapis.com%2Fcss%3Ffamily%3DArchitects%2BDaughter;fontSize=16;fontColor=default;labelBackgroundColor=none;strokeColor=#A8201A;curved=1;sketch=1;curveFitting=1;jiggle=2;" edge="1" parent="1" source="hTUGn8ci9YgOcd0fsEHF-8" target="hTUGn8ci9YgOcd0fsEHF-17">
          <mxGeometry relative="1" as="geometry" />
        </mxCell>
        <mxCell id="hTUGn8ci9YgOcd0fsEHF-8" value="FlowBiulder Factory" style="rounded=0;whiteSpace=wrap;html=1;labelBackgroundColor=none;fillColor=#FAE5C7;strokeColor=#0F8B8D;fontColor=#143642;sketch=1;curveFitting=1;jiggle=2;" vertex="1" parent="1">
          <mxGeometry x="140" y="350" width="120" height="60" as="geometry" />
        </mxCell>
        <mxCell id="hTUGn8ci9YgOcd0fsEHF-32" style="edgeStyle=orthogonalEdgeStyle;curved=1;rounded=0;orthogonalLoop=1;jettySize=auto;html=1;exitX=1;exitY=0.5;exitDx=0;exitDy=0;entryX=0.5;entryY=0;entryDx=0;entryDy=0;strokeColor=#A8201A;fontColor=#143642;fillColor=#FAE5C7;elbow=vertical;sketch=1;curveFitting=1;jiggle=2;labelBackgroundColor=none;" edge="1" parent="1" source="hTUGn8ci9YgOcd0fsEHF-14" target="hTUGn8ci9YgOcd0fsEHF-31">
          <mxGeometry relative="1" as="geometry" />
        </mxCell>
        <mxCell id="hTUGn8ci9YgOcd0fsEHF-33" value="run step" style="edgeLabel;html=1;align=center;verticalAlign=middle;resizable=0;points=[];fontColor=#143642;sketch=1;curveFitting=1;jiggle=2;labelBackgroundColor=none;" vertex="1" connectable="0" parent="hTUGn8ci9YgOcd0fsEHF-32">
          <mxGeometry x="-0.2143" y="-5" relative="1" as="geometry">
            <mxPoint as="offset" />
          </mxGeometry>
        </mxCell>
        <mxCell id="hTUGn8ci9YgOcd0fsEHF-14" value="Flow" style="rounded=0;whiteSpace=wrap;html=1;labelBackgroundColor=none;fillColor=#FAE5C7;strokeColor=#0F8B8D;fontColor=#143642;sketch=1;curveFitting=1;jiggle=2;" vertex="1" parent="1">
          <mxGeometry x="790" y="330" width="120" height="60" as="geometry" />
        </mxCell>
        <mxCell id="hTUGn8ci9YgOcd0fsEHF-29" style="edgeStyle=orthogonalEdgeStyle;curved=1;rounded=0;orthogonalLoop=1;jettySize=auto;html=1;exitX=0.5;exitY=0;exitDx=0;exitDy=0;exitPerimeter=0;entryX=0.5;entryY=1;entryDx=0;entryDy=0;strokeColor=#A8201A;fontColor=#143642;fillColor=#FAE5C7;elbow=vertical;sketch=1;curveFitting=1;jiggle=2;labelBackgroundColor=none;" edge="1" parent="1" source="hTUGn8ci9YgOcd0fsEHF-15" target="hTUGn8ci9YgOcd0fsEHF-14">
          <mxGeometry relative="1" as="geometry" />
        </mxCell>
        <mxCell id="hTUGn8ci9YgOcd0fsEHF-30" value="load flow" style="edgeLabel;html=1;align=center;verticalAlign=middle;resizable=0;points=[];fontColor=#143642;sketch=1;curveFitting=1;jiggle=2;labelBackgroundColor=none;" vertex="1" connectable="0" parent="hTUGn8ci9YgOcd0fsEHF-29">
          <mxGeometry x="0.3289" y="16" relative="1" as="geometry">
            <mxPoint as="offset" />
          </mxGeometry>
        </mxCell>
        <mxCell id="hTUGn8ci9YgOcd0fsEHF-15" value="MySQL" style="shape=cylinder3;whiteSpace=wrap;html=1;boundedLbl=1;backgroundOutline=1;size=15;labelBackgroundColor=none;shadow=0;fillColor=#FAE5C7;strokeColor=#0F8B8D;fontColor=#143642;sketch=1;curveFitting=1;jiggle=2;" vertex="1" parent="1">
          <mxGeometry x="560" y="670" width="60" height="80" as="geometry" />
        </mxCell>
        <mxCell id="hTUGn8ci9YgOcd0fsEHF-19" style="edgeStyle=orthogonalEdgeStyle;rounded=0;hachureGap=4;orthogonalLoop=1;jettySize=auto;html=1;exitX=0.5;exitY=1;exitDx=0;exitDy=0;entryX=0.5;entryY=0;entryDx=0;entryDy=0;entryPerimeter=0;fontFamily=Architects Daughter;fontSource=https%3A%2F%2Ffonts.googleapis.com%2Fcss%3Ffamily%3DArchitects%2BDaughter;fontSize=16;fontColor=default;labelBackgroundColor=none;strokeColor=#A8201A;curved=1;sketch=1;curveFitting=1;jiggle=2;" edge="1" parent="1" source="hTUGn8ci9YgOcd0fsEHF-17" target="hTUGn8ci9YgOcd0fsEHF-15">
          <mxGeometry relative="1" as="geometry" />
        </mxCell>
        <mxCell id="hTUGn8ci9YgOcd0fsEHF-22" value="create flow" style="edgeLabel;html=1;align=center;verticalAlign=middle;resizable=0;points=[];labelBackgroundColor=none;fontColor=#143642;sketch=1;curveFitting=1;jiggle=2;" vertex="1" connectable="0" parent="hTUGn8ci9YgOcd0fsEHF-19">
          <mxGeometry x="-0.125" y="-1" relative="1" as="geometry">
            <mxPoint as="offset" />
          </mxGeometry>
        </mxCell>
        <mxCell id="hTUGn8ci9YgOcd0fsEHF-17" value="Flow Builder" style="rounded=0;whiteSpace=wrap;html=1;labelBackgroundColor=none;fillColor=#FAE5C7;strokeColor=#0F8B8D;fontColor=#143642;sketch=1;curveFitting=1;jiggle=2;" vertex="1" parent="1">
          <mxGeometry x="140" y="460" width="120" height="60" as="geometry" />
        </mxCell>
        <mxCell id="hTUGn8ci9YgOcd0fsEHF-24" style="edgeStyle=orthogonalEdgeStyle;rounded=0;orthogonalLoop=1;jettySize=auto;html=1;exitX=0.5;exitY=1;exitDx=0;exitDy=0;entryX=0.5;entryY=0;entryDx=0;entryDy=0;curved=1;labelBackgroundColor=none;fontColor=default;strokeColor=#A8201A;sketch=1;curveFitting=1;jiggle=2;" edge="1" parent="1" source="hTUGn8ci9YgOcd0fsEHF-23" target="hTUGn8ci9YgOcd0fsEHF-8">
          <mxGeometry relative="1" as="geometry" />
        </mxCell>
        <mxCell id="hTUGn8ci9YgOcd0fsEHF-25" style="edgeStyle=orthogonalEdgeStyle;curved=1;rounded=0;orthogonalLoop=1;jettySize=auto;html=1;exitX=0.5;exitY=1;exitDx=0;exitDy=0;entryX=0;entryY=0.5;entryDx=0;entryDy=0;labelBackgroundColor=none;fontColor=default;strokeColor=#A8201A;sketch=1;curveFitting=1;jiggle=2;" edge="1" parent="1" source="hTUGn8ci9YgOcd0fsEHF-23" target="hTUGn8ci9YgOcd0fsEHF-5">
          <mxGeometry relative="1" as="geometry" />
        </mxCell>
        <mxCell id="hTUGn8ci9YgOcd0fsEHF-26" value="push flow id" style="edgeLabel;html=1;align=center;verticalAlign=middle;resizable=0;points=[];labelBackgroundColor=none;fontColor=#143642;sketch=1;curveFitting=1;jiggle=2;" vertex="1" connectable="0" parent="hTUGn8ci9YgOcd0fsEHF-25">
          <mxGeometry x="0.2457" y="17" relative="1" as="geometry">
            <mxPoint as="offset" />
          </mxGeometry>
        </mxCell>
        <mxCell id="hTUGn8ci9YgOcd0fsEHF-23" value="API Handler" style="rounded=0;whiteSpace=wrap;html=1;labelBackgroundColor=none;fillColor=#FAE5C7;strokeColor=#0F8B8D;fontColor=#143642;sketch=1;curveFitting=1;jiggle=2;" vertex="1" parent="1">
          <mxGeometry x="250" y="240" width="120" height="60" as="geometry" />
        </mxCell>
        <mxCell id="hTUGn8ci9YgOcd0fsEHF-27" style="edgeStyle=orthogonalEdgeStyle;rounded=0;orthogonalLoop=1;jettySize=auto;html=1;exitX=1;exitY=0.5;exitDx=0;exitDy=0;entryX=0;entryY=0.5;entryDx=0;entryDy=0;strokeColor=#A8201A;fontColor=#143642;fillColor=#FAE5C7;elbow=vertical;curved=1;sketch=1;curveFitting=1;jiggle=2;labelBackgroundColor=none;" edge="1" parent="1" source="hTUGn8ci9YgOcd0fsEHF-5" target="hTUGn8ci9YgOcd0fsEHF-14">
          <mxGeometry relative="1" as="geometry" />
        </mxCell>
        <mxCell id="hTUGn8ci9YgOcd0fsEHF-28" value="pull flow id" style="edgeLabel;html=1;align=center;verticalAlign=middle;resizable=0;points=[];fontColor=#143642;sketch=1;curveFitting=1;jiggle=2;labelBackgroundColor=none;" vertex="1" connectable="0" parent="hTUGn8ci9YgOcd0fsEHF-27">
          <mxGeometry x="0.0571" y="-2" relative="1" as="geometry">
            <mxPoint as="offset" />
          </mxGeometry>
        </mxCell>
        <mxCell id="hTUGn8ci9YgOcd0fsEHF-31" value="Step" style="rounded=0;whiteSpace=wrap;html=1;labelBackgroundColor=none;fillColor=#FAE5C7;strokeColor=#0F8B8D;fontColor=#143642;sketch=1;curveFitting=1;jiggle=2;" vertex="1" parent="1">
          <mxGeometry x="940" y="410" width="120" height="60" as="geometry" />
        </mxCell>
      </root>
    </mxGraphModel>
  </diagram>
</mxfile>
